<?xml version="1.0" encoding="utf-8"?>
<!-- Generator: Adobe Illustrator 19.0.0, SVG Export Plug-In . SVG Version: 6.00 Build 0)  -->
<svg version="1.1" id="Layer_1" xmlns="http://www.w3.org/2000/svg" xmlns:xlink="http://www.w3.org/1999/xlink" x="0px" y="0px"
	 viewBox="0 0 189.4 187.6" style="enable-background:new 0 0 189.4 187.6;" xml:space="preserve">
<style type="text/css">
	.st0{clip-path:url(#XMLID_93_);}
	.st1{fill:#EBC19C;}
	.st2{fill:#1C5A7D;}
	.st3{fill:#7CA6BA;}
	.st4{fill:#D4DCE6;}
	.st5{fill:#1A1A1A;}
	.st6{opacity:0.5;clip-path:url(#XMLID_93_);fill:#EBC19C;}
</style>
<g id="XMLID_15_">
	<g id="XMLID_16_">
		<defs>
			<circle id="XMLID_17_" cx="94.9" cy="94.5" r="94.1"/>
		</defs>
		<use xlink:href="#XMLID_17_"  style="overflow:visible;fill:#7E6990;"/>
		<clipPath id="XMLID_93_">
			<use xlink:href="#XMLID_17_"  style="overflow:visible;"/>
		</clipPath>
		<g id="XMLID_19_" class="st0">
			<path id="XMLID_40_" class="st1" d="M149.5,201.1L149.5,201.1l-109.1,0v0c0-6.2,1-12.1,2.9-17.6c0.3-1,0.7-2,1.1-3v0
				c0.4-1,0.8-1.9,1.3-2.9c1.8-3.8,4-7.3,6.6-10.6c0.7-0.8,1.3-1.6,2-2.4c0.3-0.4,0.7-0.8,1.1-1.2c0.4-0.4,0.7-0.7,1.1-1.1
				c1.8-1.8,3.8-3.5,5.9-5.1c1-0.8,2.1-1.5,3.2-2.2c0.4-0.2,0.8-0.5,1.2-0.7c0.2-0.1,0.4-0.2,0.5-0.3c0.5-0.3,1.1-0.6,1.6-0.9
				c0,0,0,0,0,0c0.4-0.2,0.9-0.5,1.3-0.8c1.3-0.8,2.5-1.6,3.7-2.6c3.8-3,6.9-6.8,9.1-11.1c0.7-1.4,1.3-2.8,1.9-4.2
				c1.3-3.6,2-7.6,2-11.6l7.9,0h0l8.2,0c0,4,0.7,7.9,2,11.5c0.5,1.5,1.1,2.9,1.8,4.3c2.2,4.3,5.3,8.1,9.1,11.1
				c0.7,0.6,1.5,1.2,2.3,1.7c0.1,0.1,0.2,0.1,0.2,0.2c0.4,0.2,0.7,0.5,1.1,0.7c0.4,0.3,0.9,0.5,1.3,0.8c0.1,0,0.1,0.1,0.2,0.1
				c0.5,0.3,1,0.5,1.4,0.8c0.4,0.2,0.8,0.5,1.2,0.7c0.4,0.3,0.8,0.5,1.3,0.8c0.9,0.5,1.7,1.1,2.5,1.8c0,0,0,0,0,0h0
				c1,0.8,2,1.6,3,2.4c1,0.8,1.9,1.7,2.8,2.6C143.3,172.4,149.5,186,149.5,201.1z"/>
			<path id="XMLID_39_" class="st2" d="M149.5,201.1H40.4c0-6.2,1-12.1,2.9-17.6c0.3-1,0.7-2,1.1-3v0c0.4-1,0.8-1.9,1.3-2.9
				c1.8-3.8,4-7.3,6.6-10.6c0.7-0.8,1.3-1.6,2-2.4c0.3-0.4,0.7-0.8,1.1-1.2c0.4-0.4,0.7-0.7,1.1-1.1c1.8-1.8,3.8-3.5,5.9-5.1
				c1-0.8,2.1-1.5,3.2-2.2c0.4-0.2,0.8-0.5,1.2-0.7c0.2-0.1,0.3-0.2,0.5-0.3c0.5-0.3,1.1-0.6,1.6-0.9c0,0,0,0,0,0v0
				c0.4-0.2,0.9-0.5,1.3-0.8c1.3-0.8,2.5-1.6,3.7-2.6c0,0,0,0,0,0c5.3,5.4,12.7,8.8,21,8.9H95c8.2,0,15.7-3.4,21-8.8l0,0
				c0.7,0.6,1.5,1.2,2.3,1.7c0.1,0.1,0.2,0.1,0.2,0.2c0.4,0.2,0.8,0.5,1.1,0.7c0.4,0.3,0.9,0.5,1.3,0.7c0.1,0,0.1,0.1,0.2,0.1
				c0.5,0.3,1,0.5,1.4,0.8c0.4,0.2,0.8,0.5,1.2,0.8c0.4,0.3,0.8,0.5,1.3,0.8c0.9,0.5,1.7,1.1,2.5,1.8h0c1,0.8,2.1,1.6,3,2.4
				c1,0.8,1.9,1.7,2.8,2.6C143.3,172.4,149.5,186,149.5,201.1z"/>
			<g id="XMLID_37_">
				<path id="XMLID_38_" class="st3" d="M122.6,154.1L122.6,154.1l-1.1,1.2c-7.1,7.2-16.5,11.1-26.5,11.1c0,0,0,0,0,0
					c-10.1,0-19.5-4-26.5-11.2l-1.1-1.1l0,0c0.5-0.3,1.1-0.6,1.6-0.9c0,0,0,0,0,0v0c0.4-0.2,0.9-0.5,1.3-0.8
					c1.3-0.8,2.5-1.6,3.7-2.6c0,0,0,0,0,0c5.3,5.4,12.7,8.8,21,8.9H95c8.2,0,15.7-3.4,21-8.8l0,0c0.7,0.6,1.5,1.2,2.3,1.7
					c0.1,0.1,0.2,0.1,0.2,0.2c0.4,0.2,0.8,0.5,1.1,0.7c0.4,0.3,0.9,0.5,1.3,0.7c0.1,0,0.1,0.1,0.2,0.1
					C121.6,153.5,122.1,153.8,122.6,154.1z"/>
			</g>
			<g id="XMLID_20_">
				<path id="XMLID_36_" class="st1" d="M136.8,64.5v25.1c0,0.5,0,0.9,0,1.4c0,0.3,0,0.7,0,1c0,0.3,0,0.7-0.1,1c0,0.2,0,0.5-0.1,0.7
					c0,0.1,0,0.3,0,0.4c0,0.3,0,0.5-0.1,0.8c0,0.2,0,0.5-0.1,0.7c0,0.2-0.1,0.5-0.1,0.7c-0.1,0.7-0.2,1.5-0.3,2.2
					c-0.1,0.5-0.2,1-0.3,1.5c0,0,0,0,0,0.1c0,0.1,0,0.1,0,0.2c0,0,0,0,0,0.1c0,0,0,0,0,0.1c0,0.1,0,0.2-0.1,0.3
					c0,0.1-0.1,0.2-0.1,0.4c0,0.1-0.1,0.3-0.1,0.4c0,0.2-0.1,0.4-0.1,0.6c0,0.1-0.1,0.2-0.1,0.3c0,0.1-0.1,0.2-0.1,0.3
					c-0.2,0.8-0.5,1.7-0.7,2.5c-0.1,0.4-0.2,0.8-0.4,1.2c0,0,0,0.1,0,0.1c-0.1,0.3-0.2,0.7-0.4,1c0,0.1-0.1,0.2-0.1,0.3
					c-0.1,0.3-0.2,0.7-0.4,1c-0.2,0.4-0.3,0.8-0.5,1.2c-0.1,0.3-0.3,0.7-0.5,1c0,0.1-0.1,0.1-0.1,0.2c-0.2,0.4-0.3,0.7-0.5,1.1
					c-0.2,0.4-0.4,0.8-0.6,1.1c-0.4,0.8-0.8,1.5-1.2,2.2l-0.6,1c-1.6,2.7-3.3,5.3-5.3,7.6c-0.3,0.3-0.5,0.7-0.8,1
					c-0.4,0.5-0.8,0.9-1.2,1.4c-0.3,0.4-0.7,0.8-1.1,1.2c-1,1.1-2,2.1-3,3c-0.2,0.2-0.4,0.4-0.6,0.6c-0.3,0.3-0.7,0.6-1.1,0.9
					c-0.3,0.2-0.6,0.5-0.9,0.7c-0.7,0.6-1.5,1.2-2.2,1.7c-0.3,0.2-0.6,0.5-0.9,0.7c-0.5,0.4-1,0.7-1.6,1.1c-0.3,0.2-0.6,0.4-0.9,0.6
					c-1,0.6-1.9,1.1-2.9,1.6c-0.1,0.1-0.2,0.1-0.3,0.1c-0.3,0.1-0.5,0.3-0.8,0.4c-0.3,0.1-0.5,0.2-0.8,0.4c-0.3,0.2-0.7,0.3-1,0.4
					c-0.1,0.1-0.3,0.1-0.4,0.2c-0.4,0.2-0.8,0.3-1.2,0.5c-0.5,0.2-1,0.3-1.5,0.5c-0.3,0.1-0.7,0.2-1.1,0.3c0,0,0,0-0.1,0
					c-0.3,0.1-0.7,0.2-1,0.2c-0.1,0-0.2,0-0.3,0.1c-0.3,0.1-0.6,0.1-0.9,0.1c-0.4,0.1-0.8,0.1-1.2,0.1c-0.1,0-0.3,0-0.4,0
					c-0.3,0-0.7,0-1,0h0c-0.3,0-0.6,0-1,0c-0.1,0-0.2,0-0.4,0c-0.3,0-0.6,0-0.9-0.1c-0.1,0-0.1,0-0.2,0c-0.4-0.1-0.8-0.1-1.2-0.2
					c-0.3-0.1-0.7-0.1-1-0.2c-1.8-0.4-3.6-1-5.4-1.8c-0.6-0.3-1.2-0.6-1.9-0.9c-1-0.5-1.9-1-2.9-1.6c-0.8-0.5-1.6-1-2.4-1.5
					c-0.4-0.3-0.8-0.6-1.2-0.8c-1.2-0.9-2.4-1.9-3.6-2.9c-0.3-0.3-0.7-0.6-1-0.9c-0.3-0.3-0.7-0.6-1-0.9c-0.8-0.8-1.6-1.6-2.3-2.4
					c-0.3-0.3-0.6-0.6-0.9-1c-0.8-0.9-1.6-1.9-2.4-2.9c-0.3-0.4-0.6-0.7-0.9-1.1c-1-1.4-2-2.8-3-4.3c-0.2-0.4-0.5-0.8-0.7-1.2
					c-0.3-0.5-0.6-1-0.8-1.5c-1-1.9-2-3.8-2.8-5.8c-0.1-0.3-0.2-0.6-0.3-0.9c-0.2-0.4-0.3-0.8-0.4-1.1c-0.2-0.5-0.4-1.1-0.6-1.6
					c-0.2-0.5-0.4-1.1-0.5-1.7c-0.2-0.5-0.3-1.1-0.5-1.6c-0.2-0.6-0.3-1.2-0.5-1.8c0-0.1,0-0.1,0-0.2c-0.2-0.8-0.4-1.7-0.5-2.5
					c-0.2-1.1-0.4-2.2-0.5-3.4c-0.1-0.4-0.1-0.7-0.1-1.1c0-0.4-0.1-0.8-0.1-1.1c-0.1-0.7-0.1-1.4-0.1-2.1c0-0.5,0-0.9,0-1.4V64.5
					c0-5.7,1.2-11.2,3.3-16.2c0.1-0.1,0.1-0.3,0.2-0.4c0.8-1.9,1.8-3.7,2.8-5.4c0.2-0.3,0.3-0.5,0.5-0.8c7.5-11.4,20.4-19,35-19h0
					c3.2,0,6.3,0.4,9.3,1c2.7,0.6,5.3,1.5,7.8,2.6c3.4,1.5,6.5,3.5,9.4,5.8c2.4,2,4.6,4.2,6.4,6.6c0.7,0.9,1.4,1.9,2.1,2.9
					c0.2,0.3,0.4,0.6,0.5,0.8c1.1,1.7,2,3.5,2.8,5.4l0.2,0.4c2.1,4.9,3.2,10.2,3.2,15.8C136.8,64.2,136.8,64.4,136.8,64.5z"/>
				<path id="XMLID_35_" class="st4" d="M136.8,89.6c0,0.5,0,0.9,0,1.4c0,0.3,0,0.7,0,1c0,0.3,0,0.7-0.1,1c0,0.2,0,0.5-0.1,0.7
					c0,0.1,0,0.3,0,0.4c0,0.3,0,0.5-0.1,0.8c0,0.2-0.1,0.5-0.1,0.7c0,0.2-0.1,0.5-0.1,0.7c-0.1,0.7-0.2,1.5-0.3,2.2
					c-0.1,0.4-0.2,0.9-0.3,1.3c0,0.1,0,0.2-0.1,0.3c0,0.1,0,0.1,0,0.2c0,0,0,0,0,0.1c0,0,0,0,0,0.1c0,0,0,0,0,0
					c0,0.1-0.1,0.2-0.1,0.3c0,0.1-0.1,0.2-0.1,0.3c0,0.1-0.1,0.3-0.1,0.4c0,0.2-0.1,0.4-0.2,0.6c0,0.1,0,0.2-0.1,0.3
					c0,0.1-0.1,0.2-0.1,0.3c-0.2,0.8-0.5,1.7-0.7,2.5c-0.1,0.4-0.2,0.8-0.4,1.2c0,0,0,0.1,0,0.1c-0.1,0.3-0.2,0.7-0.4,1
					c0,0.1-0.1,0.2-0.1,0.3c-0.1,0.3-0.2,0.7-0.4,1c-0.2,0.4-0.3,0.8-0.5,1.2c-0.1,0.3-0.3,0.7-0.5,1c0,0.1-0.1,0.1-0.1,0.2
					c-0.2,0.4-0.3,0.7-0.5,1.1c-0.2,0.4-0.4,0.8-0.6,1.1c-0.4,0.8-0.8,1.5-1.2,2.2l-0.6,1c-1.6,2.7-3.3,5.3-5.3,7.6
					c-0.3,0.3-0.5,0.7-0.8,1c-0.4,0.5-0.8,0.9-1.2,1.4c-0.3,0.4-0.7,0.8-1.1,1.2c-1,1.1-2,2.1-3,3c-0.2,0.2-0.4,0.4-0.6,0.6
					c-0.3,0.3-0.7,0.6-1.1,0.9c-0.3,0.2-0.6,0.5-0.9,0.7c-0.7,0.6-1.5,1.2-2.2,1.7c-0.3,0.2-0.6,0.5-0.9,0.7c-0.5,0.4-1,0.7-1.6,1.1
					c-0.3,0.2-0.6,0.4-0.9,0.6c-1,0.6-1.9,1.1-2.9,1.6c-0.1,0.1-0.2,0.1-0.3,0.1c-0.3,0.1-0.5,0.3-0.8,0.4c-0.3,0.1-0.5,0.2-0.8,0.4
					c-0.3,0.2-0.7,0.3-1,0.4c-0.1,0.1-0.3,0.1-0.4,0.2c-0.4,0.2-0.8,0.3-1.2,0.5c-0.5,0.2-1,0.3-1.5,0.5c-0.3,0.1-0.7,0.2-1.1,0.3
					c0,0,0,0-0.1,0c-0.3,0.1-0.7,0.2-1,0.2c-0.1,0-0.2,0-0.3,0.1c-0.3,0.1-0.6,0.1-0.9,0.1c-0.4,0.1-0.8,0.1-1.2,0.1
					c-0.1,0-0.3,0-0.4,0c-0.3,0-0.7,0-1,0h0c-0.3,0-0.6,0-1,0c-0.1,0-0.2,0-0.4,0c-0.3,0-0.6,0-0.9-0.1c-0.1,0-0.1,0-0.2,0
					c-0.4-0.1-0.8-0.1-1.2-0.2c-0.3-0.1-0.7-0.1-1-0.2c-1.8-0.4-3.6-1-5.4-1.8c-0.6-0.3-1.2-0.6-1.9-0.9c-1-0.5-1.9-1-2.9-1.6
					c-0.8-0.5-1.6-1-2.4-1.5c-0.4-0.3-0.8-0.6-1.2-0.8c-1.2-0.9-2.4-1.9-3.6-2.9c-0.3-0.3-0.7-0.6-1-0.9c-0.3-0.3-0.7-0.6-1-0.9
					c-0.8-0.8-1.6-1.6-2.3-2.4c-0.3-0.3-0.6-0.6-0.9-1c-0.8-0.9-1.6-1.9-2.4-2.9c-0.3-0.4-0.6-0.7-0.9-1.1c-1-1.4-2-2.8-3-4.3
					c-0.2-0.4-0.5-0.8-0.7-1.2c-0.3-0.5-0.6-1-0.8-1.5c-1-1.9-2-3.8-2.8-5.8c-0.1-0.3-0.2-0.6-0.3-0.9c-0.2-0.4-0.3-0.8-0.4-1.1
					c-0.2-0.5-0.4-1.1-0.6-1.6c-0.2-0.5-0.4-1.1-0.5-1.7c-0.2-0.5-0.3-1.1-0.5-1.6c-0.2-0.6-0.3-1.2-0.5-1.8c0-0.1,0-0.1,0-0.2
					c-0.2-0.8-0.4-1.7-0.5-2.5c-0.2-1.1-0.4-2.2-0.5-3.4c-0.1-0.4-0.1-0.7-0.1-1.1c0-0.4-0.1-0.8-0.1-1.1c-0.1-0.7-0.1-1.4-0.1-2.1
					c0-0.5,0-0.9,0-1.4l6.7,13.1l11.5,5l13.6,1.2h0l10.1,0.9H95l9.4,0.9c0,0,0,0,0,0l21,1.9L136.8,89.6z"/>
				<g id="XMLID_32_">
					<path id="XMLID_34_" class="st4" d="M95,96.2l0,10.1v0l0,3.5v2.8l0,9.3v0l0,0h0l0,0l0,0l-40.4-20.6c0-0.1,0-0.1,0-0.2
						c-0.2-0.8-0.4-1.7-0.5-2.5c-0.2-1.1-0.4-2.2-0.5-3.4c-0.1-0.4-0.1-0.7-0.1-1.1c0-0.4-0.1-0.8-0.1-1.1c-0.1-0.7-0.1-1.4-0.1-2.1
						c0-0.5,0-0.9,0-1.4V77.3c0,0.2,0,0.3,0,0.5c0,0.1,0,0.2,0,0.4c0.1,2.9,0.6,6,1.4,9.2c0.7,2.6,1.6,4.9,2.6,7.1v0
						c2.7,5.6,6.3,9.4,9.6,10c0.2,0,0.4,0.1,0.6,0.1c1.3,0.1,2.6,0.2,4,0.2c5.2,0,9.9-4.2,12.8-5.9c0,0,0,0,0.1,0
						c0.2-0.1,0.3-0.2,0.4-0.3c0,0,0.1-0.1,0.1-0.1C87.4,97.1,90.9,96.2,95,96.2L95,96.2z"/>
					<path id="XMLID_33_" class="st4" d="M136.8,77.3l0,12.3c0,3.1-0.3,6.1-0.8,9c-0.2,1.2-0.5,2.3-0.8,3.5l-9.5,13.7l-30.8,6.1h0
						l0,0v0l0-25.7H95c4,0,7.5,0.9,10,2.3c0,0,0.1,0,0.1,0.1c0.1,0.1,0.3,0.2,0.5,0.3c0,0,0,0,0.1,0c2.9,1.7,7.6,5.9,12.8,5.9
						c1.4,0,2.7-0.1,4-0.2c0.2,0,0.4,0,0.6-0.1c3.3-0.6,6.9-4.4,9.6-10v0c1-2.1,1.9-4.5,2.6-7.1c0.9-3.4,1.4-6.7,1.5-9.7
						C136.8,77.5,136.8,77.4,136.8,77.3z"/>
				</g>
				<ellipse id="XMLID_31_" class="st1" cx="94.9" cy="109.5" rx="10.3" ry="3.2"/>
				<path id="XMLID_26_" class="st5" d="M131.6,63.9c0-0.2-0.1-0.3-0.3-0.3c-1.5-0.2-8.1-1.1-15.2-1.1c-8.1,0-18.5,2.5-20.3,2.5
					h-1.6c-0.8,0-3.6-0.5-7-1.1c-4-0.7-9-1.4-13.3-1.4c-5.2,0-10.1,0.5-13,0.8c-1,0.1-1.8,0.2-2.2,0.3c-0.2,0-0.3,0.2-0.3,0.3
					l-0.1,4.3c0,0.2,0.1,0.3,0.2,0.3l0.5,0.2c0.7,0.3,0.7,13.4,4.6,16.6c2.3,1.9,4.4,3,13.1,3c5,0,8.2-1.4,11.2-5.4
					c2.2-2.9,4.1-9.8,4.1-9.8c0.6-2.7,2.5-3,3-3.1c0,0,0,0,0,0h0c0,0,0,0,0,0c0.1,0,2.5,0,3.1,3.1c0,0,1.9,6.9,4.1,9.8
					c3,4.1,6.2,5.4,11.2,5.4c8.7,0,10.8-1.1,13.1-3c3.9-3.3,3.8-16.3,4.6-16.6l0.5-0.2c0.1-0.1,0.2-0.2,0.2-0.3L131.6,63.9z
					 M87.8,79.3c-1.3,3-4.6,6.9-9.2,7.2c-13.9,0.7-14.6-3.2-15.5-6.3c-0.9-3.1-1.1-5.8-0.8-8.9c0.4-3.1,1.1-4.9,2.5-5.8
					c0.6-0.4,1.3-0.8,2.9-1c1.5-0.2,3.8-0.3,7.7-0.3c2.2,0,4.3,0.2,6.2,0.5c5,0.8,8.3,2.5,8.3,4.1C90,70,89.7,74.9,87.8,79.3z
					 M126.8,80.2c-0.9,3.1-1.5,7-15.5,6.3c-4.6-0.2-7.9-4.1-9.2-7.2c-1.9-4.5-2.2-9.4-2.2-10.5c0-2.3,6.3-4.6,14.5-4.6
					c8.2,0,9.5,0.6,10.6,1.4c1.4,0.9,2.2,2.7,2.5,5.8C128,74.4,127.7,77.1,126.8,80.2z"/>
				<g id="XMLID_21_">
					<path id="XMLID_25_" class="st4" d="M136.9,48.3C136.9,48.3,136.9,48.3,136.9,48.3l-83.8,0c0-29.6,19.9-28.4,41.8-26
						c0,0,0,0,0,0c1.6,0.2,3.1,0.3,4.7,0.5c16.4,1.8,29.7-5.3,36.4-11.5C145,17.8,146.6,41.6,136.9,48.3z"/>
					<path id="XMLID_24_" class="st4" d="M67.7,46.5l-0.2,0.7c-0.1,0.3-0.2,0.7-0.3,1c-0.1,0.3-0.2,0.6-0.3,0.8
						c-1.9,5.1-4.8,9.8-8.4,14.1c-2.5,3-5,7.7-5.3,15c0,0.4,0,0.8,0,1.3v-15c0-8.5,0-16.2,0-16.2l3.4-0.4l3.4-0.4l3.9-0.5L67.7,46.5
						z"/>
					<path id="XMLID_23_" class="st4" d="M137,48.3l-14.6-1.7l0.2,0.7c1.9,5.9,5.1,11.2,9.1,15.9c2.7,3.1,5.3,8.3,5.3,16.3
						C137,68.5,137,48.3,137,48.3z"/>
					<ellipse id="XMLID_22_" class="st4" cx="94.9" cy="46.5" rx="31.2" ry="5.9"/>
				</g>
			</g>
		</g>
		<path id="XMLID_18_" class="st6" d="M94.9,22.3v178.8H40.4v0c0-6.2,1-12.1,2.9-17.6c0.3-1,0.7-2,1.1-3v0c0.4-1,0.8-1.9,1.3-2.9
			c1.8-3.8,4-7.3,6.6-10.6c0.7-0.8,1.3-1.6,2-2.4c0.3-0.4,0.7-0.8,1.1-1.2c0.4-0.4,0.7-0.7,1.1-1.1c1.8-1.8,3.8-3.5,5.9-5.1
			c1-0.8,2.1-1.5,3.2-2.2c0.4-0.2,0.8-0.5,1.2-0.7c0.2-0.1,0.3-0.2,0.5-0.3c0.5-0.3,1.1-0.6,1.6-0.9c0,0,0,0,0,0v0
			c0.4-0.2,0.9-0.5,1.3-0.8c1.3-0.8,2.5-1.6,3.7-2.6c0,0,0,0,0,0c3.8-3,6.9-6.8,9.1-11.1c-1-0.5-1.9-1-2.9-1.6
			c-0.8-0.5-1.6-1-2.4-1.5c-0.4-0.3-0.8-0.6-1.2-0.8c-1.2-0.9-2.4-1.9-3.6-2.9c-0.3-0.3-0.7-0.6-1-0.9c-0.3-0.3-0.7-0.6-1-0.9
			c-0.8-0.8-1.6-1.6-2.3-2.4c-0.3-0.3-0.6-0.6-0.9-1c-0.8-0.9-1.6-1.9-2.4-2.9c-0.3-0.4-0.6-0.7-0.9-1.1c-1-1.4-2-2.8-3-4.3
			c-0.2-0.4-0.5-0.8-0.7-1.2c-0.3-0.5-0.6-1-0.8-1.5c-1-1.9-2-3.8-2.8-5.8c-0.1-0.3-0.2-0.6-0.3-0.9c-0.2-0.4-0.3-0.8-0.4-1.1
			c-0.2-0.5-0.4-1.1-0.6-1.6c-0.2-0.5-0.4-1.1-0.5-1.7c-0.2-0.5-0.3-1.1-0.5-1.6c-0.2-0.6-0.3-1.2-0.5-1.8c0-0.1,0-0.1,0-0.2
			c-0.2-0.8-0.4-1.7-0.5-2.5c-0.2-1.1-0.4-2.2-0.5-3.4c-0.1-0.4-0.1-0.7-0.1-1.1c0-0.4-0.1-0.8-0.1-1.1c-0.1-0.7-0.1-1.4-0.1-2.1
			c0-0.5,0-0.9,0-1.4V64.5c0-8.5,0-16.2,0-16.2C53.1,18.7,73,19.9,94.9,22.3z"/>
	</g>
</g>
</svg>
